#tb 0: 1/11025
0,          0,          0,        0,    63180, 0xcda82c16
0,        220,        220,        0,    63180, 0xa6097bf9
0,        440,        440,        0,    63180, 0x4c2fb091
0,        660,        660,        0,    63180, 0xc597db00
0,        880,        880,        0,    63180, 0xfa581ccd
0,       1100,       1100,        0,    63180, 0x3e51498f
0,       1320,       1320,        0,    63180, 0xe3495396
0,       1540,       1540,        0,    63180, 0x425f5f02
0,       1760,       1760,        0,    63180, 0x6077465f
0,       1980,       1980,        0,    63180, 0x923ba29c
